<svg xmlns="http://www.w3.org/2000/svg" xmlns:xlink="http://www.w3.org/1999/xlink" id="processonSvg1000" viewBox="37.0 80.0 1060.0 631.125" width="1060.0" height="631.125"><defs id="ProcessOnDefs1001"><marker id="ProcessOnMarker1041" markerUnits="userSpaceOnUse" orient="auto" markerWidth="16.23606797749979" markerHeight="10.550836550532098" viewBox="-1.0 -1.3763819204711736 16.23606797749979 10.550836550532098" refX="-1.0" refY="3.8990363547948754"><path id="ProcessOnPath1042" d="M12.0 3.8990363547948754L0.0 7.798072709589751V0.0Z" stroke="#323232" stroke-width="2.0" fill="#323232" transform="matrix(1.0,0.0,0.0,1.0,0.0,0.0)"/></marker><marker id="ProcessOnMarker1048" markerUnits="userSpaceOnUse" orient="auto" markerWidth="16.23606797749979" markerHeight="10.550836550532098" viewBox="-1.0 -1.3763819204711736 16.23606797749979 10.550836550532098" refX="-1.0" refY="3.8990363547948754"><path id="ProcessOnPath1049" d="M12.0 3.8990363547948754L0.0 7.798072709589751V0.0Z" stroke="#323232" stroke-width="2.0" fill="#323232" transform="matrix(1.0,0.0,0.0,1.0,0.0,0.0)"/></marker><marker id="ProcessOnMarker1057" markerUnits="userSpaceOnUse" orient="auto" markerWidth="16.23606797749979" markerHeight="10.550836550532098" viewBox="-1.0 -1.3763819204711736 16.23606797749979 10.550836550532098" refX="-1.0" refY="3.8990363547948754"><path id="ProcessOnPath1058" d="M12.0 3.8990363547948754L0.0 7.798072709589751V0.0Z" stroke="#323232" stroke-width="2.0" fill="#323232" transform="matrix(1.0,0.0,0.0,1.0,0.0,0.0)"/></marker><marker id="ProcessOnMarker1066" markerUnits="userSpaceOnUse" orient="auto" markerWidth="16.23606797749979" markerHeight="10.550836550532098" viewBox="-1.0 -1.3763819204711736 16.23606797749979 10.550836550532098" refX="-1.0" refY="3.8990363547948754"><path id="ProcessOnPath1067" d="M12.0 3.8990363547948754L0.0 7.798072709589751V0.0Z" stroke="#323232" stroke-width="2.0" fill="#323232" transform="matrix(1.0,0.0,0.0,1.0,0.0,0.0)"/></marker><marker id="ProcessOnMarker1074" markerUnits="userSpaceOnUse" orient="auto" markerWidth="16.23606797749979" markerHeight="10.550836550532098" viewBox="-1.0 -1.3763819204711736 16.23606797749979 10.550836550532098" refX="-1.0" refY="3.8990363547948754"><path id="ProcessOnPath1075" d="M12.0 3.8990363547948754L0.0 7.798072709589751V0.0Z" stroke="#323232" stroke-width="2.0" fill="#323232" transform="matrix(1.0,0.0,0.0,1.0,0.0,0.0)"/></marker><marker id="ProcessOnMarker1082" markerUnits="userSpaceOnUse" orient="auto" markerWidth="16.23606797749979" markerHeight="10.550836550532098" viewBox="-1.0 -1.3763819204711736 16.23606797749979 10.550836550532098" refX="-1.0" refY="3.8990363547948754"><path id="ProcessOnPath1083" d="M12.0 3.8990363547948754L0.0 7.798072709589751V0.0Z" stroke="#323232" stroke-width="2.0" fill="#323232" transform="matrix(1.0,0.0,0.0,1.0,0.0,0.0)"/></marker><marker id="ProcessOnMarker1091" markerUnits="userSpaceOnUse" orient="auto" markerWidth="16.23606797749979" markerHeight="10.550836550532098" viewBox="-1.0 -1.3763819204711736 16.23606797749979 10.550836550532098" refX="-1.0" refY="3.8990363547948754"><path id="ProcessOnPath1092" d="M12.0 3.8990363547948754L0.0 7.798072709589751V0.0Z" stroke="#323232" stroke-width="2.0" fill="#323232" transform="matrix(1.0,0.0,0.0,1.0,0.0,0.0)"/></marker><marker id="ProcessOnMarker1100" markerUnits="userSpaceOnUse" orient="auto" markerWidth="16.23606797749979" markerHeight="10.550836550532098" viewBox="-1.0 -1.3763819204711736 16.23606797749979 10.550836550532098" refX="-1.0" refY="3.8990363547948754"><path id="ProcessOnPath1101" d="M12.0 3.8990363547948754L0.0 7.798072709589751V0.0Z" stroke="#323232" stroke-width="2.0" fill="#323232" transform="matrix(1.0,0.0,0.0,1.0,0.0,0.0)"/></marker><marker id="ProcessOnMarker1108" markerUnits="userSpaceOnUse" orient="auto" markerWidth="16.23606797749979" markerHeight="10.550836550532098" viewBox="-1.0 -1.3763819204711736 16.23606797749979 10.550836550532098" refX="-1.0" refY="3.8990363547948754"><path id="ProcessOnPath1109" d="M12.0 3.8990363547948754L0.0 7.798072709589751V0.0Z" stroke="#323232" stroke-width="2.0" fill="#323232" transform="matrix(1.0,0.0,0.0,1.0,0.0,0.0)"/></marker><marker id="ProcessOnMarker1115" markerUnits="userSpaceOnUse" orient="auto" markerWidth="16.23606797749979" markerHeight="10.550836550532098" viewBox="-1.0 -1.3763819204711736 16.23606797749979 10.550836550532098" refX="-1.0" refY="3.8990363547948754"><path id="ProcessOnPath1116" d="M12.0 3.8990363547948754L0.0 7.798072709589751V0.0Z" stroke="#323232" stroke-width="2.0" fill="#323232" transform="matrix(1.0,0.0,0.0,1.0,0.0,0.0)"/></marker><marker id="ProcessOnMarker1124" markerUnits="userSpaceOnUse" orient="auto" markerWidth="16.23606797749979" markerHeight="10.550836550532098" viewBox="-1.0 -1.3763819204711736 16.23606797749979 10.550836550532098" refX="-1.0" refY="3.8990363547948754"><path id="ProcessOnPath1125" d="M12.0 3.8990363547948754L0.0 7.798072709589751V0.0Z" stroke="#323232" stroke-width="2.0" fill="#323232" transform="matrix(1.0,0.0,0.0,1.0,0.0,0.0)"/></marker><marker id="ProcessOnMarker1131" markerUnits="userSpaceOnUse" orient="auto" markerWidth="16.23606797749979" markerHeight="10.550836550532098" viewBox="-1.0 -1.3763819204711736 16.23606797749979 10.550836550532098" refX="-1.0" refY="3.8990363547948754"><path id="ProcessOnPath1132" d="M12.0 3.8990363547948754L0.0 7.798072709589751V0.0Z" stroke="#323232" stroke-width="2.0" fill="#323232" transform="matrix(1.0,0.0,0.0,1.0,0.0,0.0)"/></marker><marker id="ProcessOnMarker1138" markerUnits="userSpaceOnUse" orient="auto" markerWidth="16.23606797749979" markerHeight="10.550836550532098" viewBox="-1.0 -1.3763819204711736 16.23606797749979 10.550836550532098" refX="-1.0" refY="3.8990363547948754"><path id="ProcessOnPath1139" d="M12.0 3.8990363547948754L0.0 7.798072709589751V0.0Z" stroke="#323232" stroke-width="2.0" fill="#323232" transform="matrix(1.0,0.0,0.0,1.0,0.0,0.0)"/></marker><marker id="ProcessOnMarker1145" markerUnits="userSpaceOnUse" orient="auto" markerWidth="16.23606797749979" markerHeight="10.550836550532098" viewBox="-1.0 -1.3763819204711736 16.23606797749979 10.550836550532098" refX="-1.0" refY="3.8990363547948754"><path id="ProcessOnPath1146" d="M12.0 3.8990363547948754L0.0 7.798072709589751V0.0Z" stroke="#323232" stroke-width="2.0" fill="#323232" transform="matrix(1.0,0.0,0.0,1.0,0.0,0.0)"/></marker><marker id="ProcessOnMarker1152" markerUnits="userSpaceOnUse" orient="auto" markerWidth="16.23606797749979" markerHeight="10.550836550532098" viewBox="-1.0 -1.3763819204711736 16.23606797749979 10.550836550532098" refX="-1.0" refY="3.8990363547948754"><path id="ProcessOnPath1153" d="M12.0 3.8990363547948754L0.0 7.798072709589751V0.0Z" stroke="#323232" stroke-width="2.0" fill="#323232" transform="matrix(1.0,0.0,0.0,1.0,0.0,0.0)"/></marker></defs><g id="ProcessOnG1002"><path id="ProcessOnPath1003" d="M37.0 80.0H1097.0V711.125H37.0V80.0Z" fill="none"/><g id="ProcessOnG1004"><g id="ProcessOnG1005" transform="matrix(1.0,0.0,0.0,1.0,57.0,100.0)" opacity="1.0"><path id="ProcessOnPath1006" d="M68.5 30.0L68.5 586.0" stroke="#323232" stroke-width="2.0" stroke-dasharray="2.0 3.0" fill="none"/><path id="ProcessOnPath1007" d="M0.0 0.0L137.0 0.0L137.0 30.0L0.0 30.0Z" stroke="#323232" stroke-width="2.0" stroke-dasharray="none" fill="#ffffed"/><g id="ProcessOnG1008" transform="matrix(1.0,0.0,0.0,1.0,10.0,6.875)"><text id="ProcessOnText1009" fill="#323232" font-size="13" x="57.5" y="13.325" font-family="Arial" font-weight="normal" font-style="normal" text-decoration="none" family="Arial" text-anchor="middle" size="13">worker进程主循环</text></g></g><g id="ProcessOnG1010" transform="matrix(1.0,0.0,0.0,1.0,228.0,100.0)" opacity="1.0"><path id="ProcessOnPath1011" d="M68.5 30.0L68.5 586.0" stroke="#323232" stroke-width="2.0" stroke-dasharray="2.0 3.0" fill="none"/><path id="ProcessOnPath1012" d="M0.0 0.0L137.0 0.0L137.0 30.0L0.0 30.0Z" stroke="#323232" stroke-width="2.0" stroke-dasharray="none" fill="#ffffed"/><g id="ProcessOnG1013" transform="matrix(1.0,0.0,0.0,1.0,10.0,6.875)"><text id="ProcessOnText1014" fill="#323232" font-size="13" x="57.5" y="13.325" font-family="Arial" font-weight="normal" font-style="normal" text-decoration="none" family="Arial" text-anchor="middle" size="13">事件模块</text></g></g><g id="ProcessOnG1015" transform="matrix(1.0,0.0,0.0,1.0,405.0,100.0)" opacity="1.0"><path id="ProcessOnPath1016" d="M68.5 30.0L68.5 586.0" stroke="#323232" stroke-width="2.0" stroke-dasharray="2.0 3.0" fill="none"/><path id="ProcessOnPath1017" d="M0.0 0.0L137.0 0.0L137.0 30.0L0.0 30.0Z" stroke="#323232" stroke-width="2.0" stroke-dasharray="none" fill="#ffffed"/><g id="ProcessOnG1018" transform="matrix(1.0,0.0,0.0,1.0,10.0,6.875)"><text id="ProcessOnText1019" fill="#323232" font-size="13" x="57.5" y="13.325" font-family="Arial" font-weight="normal" font-style="normal" text-decoration="none" family="Arial" text-anchor="middle" size="13">HTTP框架</text></g></g><g id="ProcessOnG1020" transform="matrix(1.0,0.0,0.0,1.0,583.0,100.0)" opacity="1.0"><path id="ProcessOnPath1021" d="M68.5 30.0L68.5 586.0" stroke="#323232" stroke-width="2.0" stroke-dasharray="2.0 3.0" fill="none"/><path id="ProcessOnPath1022" d="M0.0 0.0L137.0 0.0L137.0 30.0L0.0 30.0Z" stroke="#323232" stroke-width="2.0" stroke-dasharray="none" fill="#ffffed"/><g id="ProcessOnG1023" transform="matrix(1.0,0.0,0.0,1.0,10.0,6.875)"><text id="ProcessOnText1024" fill="#323232" font-size="13" x="57.5" y="13.325" font-family="Arial" font-weight="normal" font-style="normal" text-decoration="none" family="Arial" text-anchor="middle" size="13">HTTP处理模块</text></g></g><g id="ProcessOnG1025" transform="matrix(1.0,0.0,0.0,1.0,756.0,100.0)" opacity="1.0"><path id="ProcessOnPath1026" d="M68.5 30.0L68.5 586.0" stroke="#323232" stroke-width="2.0" stroke-dasharray="2.0 3.0" fill="none"/><path id="ProcessOnPath1027" d="M0.0 0.0L137.0 0.0L137.0 30.0L0.0 30.0Z" stroke="#323232" stroke-width="2.0" stroke-dasharray="none" fill="#ffffed"/><g id="ProcessOnG1028" transform="matrix(1.0,0.0,0.0,1.0,10.0,6.875)"><text id="ProcessOnText1029" fill="#323232" font-size="13" x="57.5" y="13.325" font-family="Arial" font-weight="normal" font-style="normal" text-decoration="none" family="Arial" text-anchor="middle" size="13">HTTP过滤模块链表</text></g></g><g id="ProcessOnG1030" transform="matrix(1.0,0.0,0.0,1.0,940.0,100.0)" opacity="1.0"><path id="ProcessOnPath1031" d="M68.5 30.0L68.5 586.0" stroke="#323232" stroke-width="2.0" stroke-dasharray="2.0 3.0" fill="none"/><path id="ProcessOnPath1032" d="M0.0 0.0L137.0 0.0L137.0 30.0L0.0 30.0Z" stroke="#323232" stroke-width="2.0" stroke-dasharray="none" fill="#ffffed"/><g id="ProcessOnG1033" transform="matrix(1.0,0.0,0.0,1.0,10.0,6.875)"><text id="ProcessOnText1034" fill="#323232" font-size="13" x="57.5" y="13.325" font-family="Arial" font-weight="normal" font-style="normal" text-decoration="none" family="Arial" text-anchor="middle" size="13">其他HTTP处理模块</text></g></g><g id="ProcessOnG1035" transform="matrix(1.0,0.0,0.0,1.0,110.5,162.0)" opacity="1.0"><path id="ProcessOnPath1036" d="M0.0 4.0Q0.0 0.0 4.0 0.0L26.0 0.0Q30.0 0.0 30.0 4.0L30.0 520.0Q30.0 524.0 26.0 524.0L4.0 524.0Q0.0 524.0 0.0 520.0L0.0 4.0Z" stroke="#323232" stroke-width="2.0" stroke-dasharray="none" fill="#ffffed"/></g><g id="ProcessOnG1037" transform="matrix(1.0,0.0,0.0,1.0,281.5,162.0)" opacity="1.0"><path id="ProcessOnPath1038" d="M0.0 4.0Q0.0 0.0 4.0 0.0L26.0 0.0Q30.0 0.0 30.0 4.0L30.0 497.0Q30.0 501.0 26.0 501.0L4.0 501.0Q0.0 501.0 0.0 497.0L0.0 4.0Z" stroke="#323232" stroke-width="2.0" stroke-dasharray="none" fill="#ffffed"/></g><g id="ProcessOnG1039"><path id="ProcessOnPath1040" d="M124.0 162.0L211.0 162.0L211.0 162.0L282.7639320225002 162.0" stroke="#323232" stroke-width="2.0" stroke-dasharray="none" fill="none" marker-end="url(#ProcessOnMarker1041)"/><g id="ProcessOnG1043" transform="matrix(1.0,0.0,0.0,1.0,203.3819660112501,153.875)"><path id="ProcessOnPath1044" d="M0 0H60.0V16.25H0Z" fill="#fff" transform="matrix(1.0,0.0,0.0,1.0,-30.0,0.0)"/><text id="ProcessOnText1045" fill="#323232" font-size="13" x="0.0" y="13.325" font-family="Arial" font-weight="normal" font-style="normal" text-decoration="none" family="Arial" text-anchor="middle" size="13">调用事件模块</text></g></g><g id="ProcessOnG1046"><path id="ProcessOnPath1047" d="M311.0 184.0L341.0 184.0L341.0 237.0L326.2360679774998 237.0" stroke="#323232" stroke-width="2.0" stroke-dasharray="none" fill="none" marker-end="url(#ProcessOnMarker1048)"/><g id="ProcessOnG1050" transform="matrix(1.0,0.0,0.0,1.0,341.0,194.7569660112501)"><path id="ProcessOnPath1051" d="M0 0H65.0V16.25H0Z" fill="#fff" transform="matrix(1.0,0.0,0.0,1.0,-32.5,0.0)"/><text id="ProcessOnText1052" fill="#323232" font-size="13" x="0.0" y="13.325" font-family="Arial" font-weight="normal" font-style="normal" text-decoration="none" family="Arial" text-anchor="middle" size="13">建立TCP连接</text></g></g><g id="ProcessOnG1053" transform="matrix(1.0,0.0,0.0,1.0,458.5,259.0)" opacity="1.0"><path id="ProcessOnPath1054" d="M0.0 4.0Q0.0 0.0 4.0 0.0L26.0 0.0Q30.0 0.0 30.0 4.0L30.0 379.0Q30.0 383.0 26.0 383.0L4.0 383.0Q0.0 383.0 0.0 379.0L0.0 4.0Z" stroke="#323232" stroke-width="2.0" stroke-dasharray="none" fill="#ffffed"/></g><g id="ProcessOnG1055"><path id="ProcessOnPath1056" d="M488.0 272.43859649122805L518.0 272.43859649122805L518.0 314.9941520467836L503.2360679774998 314.9941520467836" stroke="#323232" stroke-width="2.0" stroke-dasharray="none" fill="none" marker-end="url(#ProcessOnMarker1057)"/><g id="ProcessOnG1059" transform="matrix(1.0,0.0,0.0,1.0,518.0,277.9733402802559)"><path id="ProcessOnPath1060" d="M0 0H102.0V16.25H0Z" fill="#fff" transform="matrix(1.0,0.0,0.0,1.0,-51.0,0.0)"/><text id="ProcessOnText1061" fill="#323232" font-size="13" x="0.0" y="13.325" font-family="Arial" font-weight="normal" font-style="normal" text-decoration="none" family="Arial" text-anchor="middle" size="13">接收请求的HTTP包头</text></g></g><g id="ProcessOnG1062" transform="matrix(1.0,0.0,0.0,1.0,636.5,343.0)" opacity="1.0"><path id="ProcessOnPath1063" d="M0.0 4.0Q0.0 0.0 4.0 0.0L26.0 0.0Q30.0 0.0 30.0 4.0L30.0 188.0Q30.0 192.0 26.0 192.0L4.0 192.0Q0.0 192.0 0.0 188.0L0.0 4.0Z" stroke="#323232" stroke-width="2.0" stroke-dasharray="none" fill="#ffffed"/></g><g id="ProcessOnG1064"><path id="ProcessOnPath1065" d="M489.0 343.0L569.5 343.0L569.5 343.0L634.7639320225002 343.0" stroke="#323232" stroke-width="2.0" stroke-dasharray="none" fill="none" marker-end="url(#ProcessOnMarker1066)"/><g id="ProcessOnG1068" transform="matrix(1.0,0.0,0.0,1.0,561.8819660112501,326.75)"><path id="ProcessOnPath1069" d="M0 0H105.0V32.5H0Z" fill="#fff" transform="matrix(1.0,0.0,0.0,1.0,-52.5,0.0)"/><text id="ProcessOnText1070" fill="#323232" font-size="13" x="0.0" y="13.325" font-family="Arial" font-weight="normal" font-style="normal" text-decoration="none" family="Arial" text-anchor="middle" size="13">根据location配置调用</text><text id="ProcessOnText1071" fill="#323232" font-size="13" x="0.0" y="29.575" font-family="Arial" font-weight="normal" font-style="normal" text-decoration="none" family="Arial" text-anchor="middle" size="13">HTTP模块处理请求</text></g></g><g id="ProcessOnG1072"><path id="ProcessOnPath1073" d="M313.0 257.0L391.0 257.0L391.0 257.0L453.7639320225002 257.0" stroke="#323232" stroke-width="2.0" stroke-dasharray="none" fill="none" marker-end="url(#ProcessOnMarker1074)"/><g id="ProcessOnG1076" transform="matrix(1.0,0.0,0.0,1.0,383.38196601125014,240.75)"><path id="ProcessOnPath1077" d="M0 0H92.0V32.5H0Z" fill="#fff" transform="matrix(1.0,0.0,0.0,1.0,-46.0,0.0)"/><text id="ProcessOnText1078" fill="#323232" font-size="13" x="0.0" y="13.325" font-family="Arial" font-weight="normal" font-style="normal" text-decoration="none" family="Arial" text-anchor="middle" size="13">根据配置文件</text><text id="ProcessOnText1079" fill="#323232" font-size="13" x="0.0" y="29.575" font-family="Arial" font-weight="normal" font-style="normal" text-decoration="none" family="Arial" text-anchor="middle" size="13">交由HTTP框架处理</text></g></g><g id="ProcessOnG1080"><path id="ProcessOnPath1081" d="M666.0 351.636678200692L696.0 351.636678200692L696.0 379.0L681.2360679774998 379.0" stroke="#323232" stroke-width="2.0" stroke-dasharray="none" fill="none" marker-end="url(#ProcessOnMarker1082)"/><g id="ProcessOnG1084" transform="matrix(1.0,0.0,0.0,1.0,696.0,349.5753051115961)"><path id="ProcessOnPath1085" d="M0 0H40.0V16.25H0Z" fill="#fff" transform="matrix(1.0,0.0,0.0,1.0,-20.0,0.0)"/><text id="ProcessOnText1086" fill="#323232" font-size="13" x="0.0" y="13.325" font-family="Arial" font-weight="normal" font-style="normal" text-decoration="none" family="Arial" text-anchor="middle" size="13">处理请求</text></g></g><g id="ProcessOnG1087" transform="matrix(1.0,0.0,0.0,1.0,809.5,406.0)" opacity="1.0"><path id="ProcessOnPath1088" d="M0.0 4.0Q0.0 0.0 4.0 0.0L26.0 0.0Q30.0 0.0 30.0 4.0L30.0 96.0Q30.0 100.0 26.0 100.0L4.0 100.0Q0.0 100.0 0.0 96.0L0.0 4.0Z" stroke="#323232" stroke-width="2.0" stroke-dasharray="none" fill="#ffffed"/></g><g id="ProcessOnG1089"><path id="ProcessOnPath1090" d="M666.5 408.0L744.75 408.0L744.75 408.0L807.7639320225002 408.0" stroke="#323232" stroke-width="2.0" stroke-dasharray="none" fill="none" marker-end="url(#ProcessOnMarker1091)"/><g id="ProcessOnG1093" transform="matrix(1.0,0.0,0.0,1.0,737.1319660112501,383.625)"><path id="ProcessOnPath1094" d="M0 0H82.0V48.75H0Z" fill="#fff" transform="matrix(1.0,0.0,0.0,1.0,-41.0,0.0)"/><text id="ProcessOnText1095" fill="#323232" font-size="13" x="0.0" y="13.325" font-family="Arial" font-weight="normal" font-style="normal" text-decoration="none" family="Arial" text-anchor="middle" size="13">发送HTTP响应时</text><text id="ProcessOnText1096" fill="#323232" font-size="13" x="0.0" y="29.575" font-family="Arial" font-weight="normal" font-style="normal" text-decoration="none" family="Arial" text-anchor="middle" size="13">依次调用所有的</text><text id="ProcessOnText1097" fill="#323232" font-size="13" x="0.0" y="45.825" font-family="Arial" font-weight="normal" font-style="normal" text-decoration="none" family="Arial" text-anchor="middle" size="13">HTTP过滤模块</text></g></g><g id="ProcessOnG1098"><path id="ProcessOnPath1099" d="M839.0038053019083 414.08715574274765L869.0038053019083 414.08715574274765L869.0 481.0L854.2360679774998 481.0" stroke="#323232" stroke-width="2.0" stroke-dasharray="none" fill="none" marker-end="url(#ProcessOnMarker1100)"/><g id="ProcessOnG1102" transform="matrix(1.0,0.0,0.0,1.0,861.3876739641125,397.83715574274765)"><path id="ProcessOnPath1103" d="M0 0H60.0V32.5H0Z" fill="#fff" transform="matrix(1.0,0.0,0.0,1.0,-30.0,0.0)"/><text id="ProcessOnText1104" fill="#323232" font-size="13" x="0.0" y="13.325" font-family="Arial" font-weight="normal" font-style="normal" text-decoration="none" family="Arial" text-anchor="middle" size="13">根据配置文件</text><text id="ProcessOnText1105" fill="#323232" font-size="13" x="0.0" y="29.575" font-family="Arial" font-weight="normal" font-style="normal" text-decoration="none" family="Arial" text-anchor="middle" size="13">决定如何处理</text></g></g><g id="ProcessOnG1106"><path id="ProcessOnPath1107" d="M833.0 506.0L751.0 506.0L751.0 506.0L684.2360679774998 506.0" stroke="#323232" stroke-width="2.0" stroke-dasharray="none" fill="none" marker-end="url(#ProcessOnMarker1108)"/><g id="ProcessOnG1110" transform="matrix(1.0,0.0,0.0,1.0,758.6180339887499,497.875)"><path id="ProcessOnPath1111" d="M0 0H112.0V16.25H0Z" fill="#fff" transform="matrix(1.0,0.0,0.0,1.0,-56.0,0.0)"/><text id="ProcessOnText1112" fill="#323232" font-size="13" x="0.0" y="13.325" font-family="Arial" font-weight="normal" font-style="normal" text-decoration="none" family="Arial" text-anchor="middle" size="13">所有HTTP过滤模块返回</text></g></g><g id="ProcessOnG1113"><path id="ProcessOnPath1114" d="M650.0 537.0L569.0 537.0L569.0 538.0L503.2360679774998 538.0" stroke="#323232" stroke-width="2.0" stroke-dasharray="none" fill="none" marker-end="url(#ProcessOnMarker1115)"/><g id="ProcessOnG1117" transform="matrix(1.0,0.0,0.0,1.0,576.1180339887499,528.875)"><path id="ProcessOnPath1118" d="M0 0H50.0V16.25H0Z" fill="#fff" transform="matrix(1.0,0.0,0.0,1.0,-25.0,0.0)"/><text id="ProcessOnText1119" fill="#323232" font-size="13" x="0.0" y="13.325" font-family="Arial" font-weight="normal" font-style="normal" text-decoration="none" family="Arial" text-anchor="middle" size="13">处理后返回</text></g></g><g id="ProcessOnG1120" transform="matrix(1.0,0.0,0.0,1.0,993.5,572.0)" opacity="1.0"><path id="ProcessOnPath1121" d="M0.0 4.0Q0.0 0.0 4.0 0.0L26.0 0.0Q30.0 0.0 30.0 4.0L30.0 46.0Q30.0 50.0 26.0 50.0L4.0 50.0Q0.0 50.0 0.0 46.0L0.0 4.0Z" stroke="#323232" stroke-width="2.0" stroke-dasharray="none" fill="#ffffed"/></g><g id="ProcessOnG1122"><path id="ProcessOnPath1123" d="M491.0 572.0L750.0 572.0L750.0 572.0L993.7639320225002 572.0" stroke="#323232" stroke-width="2.0" stroke-dasharray="none" fill="none" marker-end="url(#ProcessOnMarker1124)"/><g id="ProcessOnG1126" transform="matrix(1.0,0.0,0.0,1.0,742.3819660112501,563.875)"><path id="ProcessOnPath1127" d="M0 0H205.0V16.25H0Z" fill="#fff" transform="matrix(1.0,0.0,0.0,1.0,-102.5,0.0)"/><text id="ProcessOnText1128" fill="#323232" font-size="13" x="0.0" y="13.325" font-family="Arial" font-weight="normal" font-style="normal" text-decoration="none" family="Arial" text-anchor="middle" size="13">根据处理模块的逻辑决定是否执行POST请求</text></g></g><g id="ProcessOnG1129"><path id="ProcessOnPath1130" d="M1008.0 622.0L748.0 622.0L748.0 622.0L503.2360679774998 622.0" stroke="#323232" stroke-width="2.0" stroke-dasharray="none" fill="none" marker-end="url(#ProcessOnMarker1131)"/><g id="ProcessOnG1133" transform="matrix(1.0,0.0,0.0,1.0,755.6180339887499,613.875)"><path id="ProcessOnPath1134" d="M0 0H75.0V16.25H0Z" fill="#fff" transform="matrix(1.0,0.0,0.0,1.0,-37.5,0.0)"/><text id="ProcessOnText1135" fill="#323232" font-size="13" x="0.0" y="13.325" font-family="Arial" font-weight="normal" font-style="normal" text-decoration="none" family="Arial" text-anchor="middle" size="13">POST请求返回</text></g></g><g id="ProcessOnG1136"><path id="ProcessOnPath1137" d="M474.0 643.0L392.5 643.0L392.5 643.0L326.2360679774998 643.0" stroke="#323232" stroke-width="2.0" stroke-dasharray="none" fill="none" marker-end="url(#ProcessOnMarker1138)"/><g id="ProcessOnG1140" transform="matrix(1.0,0.0,0.0,1.0,400.11803398874986,634.875)"><path id="ProcessOnPath1141" d="M0 0H50.0V16.25H0Z" fill="#fff" transform="matrix(1.0,0.0,0.0,1.0,-25.0,0.0)"/><text id="ProcessOnText1142" fill="#323232" font-size="13" x="0.0" y="13.325" font-family="Arial" font-weight="normal" font-style="normal" text-decoration="none" family="Arial" text-anchor="middle" size="13">控制权交还</text></g></g><g id="ProcessOnG1143"><path id="ProcessOnPath1144" d="M300.0 664.0L220.0 664.0L220.0 668.0L155.2360679774998 668.0" stroke="#323232" stroke-width="2.0" stroke-dasharray="none" fill="none" marker-end="url(#ProcessOnMarker1145)"/><g id="ProcessOnG1147" transform="matrix(1.0,0.0,0.0,1.0,225.61803398874991,655.875)"><path id="ProcessOnPath1148" d="M0 0H50.0V16.25H0Z" fill="#fff" transform="matrix(1.0,0.0,0.0,1.0,-25.0,0.0)"/><text id="ProcessOnText1149" fill="#323232" font-size="13" x="0.0" y="13.325" font-family="Arial" font-weight="normal" font-style="normal" text-decoration="none" family="Arial" text-anchor="middle" size="13">控制权交还</text></g></g><g id="ProcessOnG1150"><path id="ProcessOnPath1151" d="M514.0 683.0L432.5 683.0L432.5 683.0L366.2360679774998 683.0" stroke="#323232" stroke-width="2.0" stroke-dasharray="none" fill="none" marker-end="url(#ProcessOnMarker1152)"/><g id="ProcessOnG1154" transform="matrix(1.0,0.0,0.0,1.0,440.11803398874986,674.875)"><path id="ProcessOnPath1155" d="M0 0H50.0V16.25H0Z" fill="#fff" transform="matrix(1.0,0.0,0.0,1.0,-25.0,0.0)"/><text id="ProcessOnText1156" fill="#323232" font-size="13" x="0.0" y="13.325" font-family="Arial" font-weight="normal" font-style="normal" text-decoration="none" family="Arial" text-anchor="middle" size="13">控制权交还</text></g></g></g></g></svg>